<?xml version="1.0" ?><!DOCTYPE svg  PUBLIC '-//W3C//DTD SVG 1.1//EN'  'http://www.w3.org/Graphics/SVG/1.1/DTD/svg11.dtd'>
<svg height="100%" style="fill-rule:evenodd;clip-rule:evenodd;stroke-linejoin:round;stroke-miterlimit:2;" version="1.1" viewBox="0 0 24 24" width="100%" xml:space="preserve" xmlns="http://www.w3.org/2000/svg" xmlns:serif="http://www.serif.com/" xmlns:xlink="http://www.w3.org/1999/xlink">
<g id="Icon"><path fill="#121113" d="M9.514,2.774c0.184,-0.05 0.386,-0.031 0.564,0.068c0.362,0.202 0.491,0.659 0.29,1.021c-0.578,1.034 -0.906,2.225 -0.906,3.493c-0,3.964 3.218,7.182 7.182,7.182c1.267,0 2.457,-0.328 3.49,-0.904c0.362,-0.202 0.819,-0.072 1.021,0.29c0.063,0.113 0.094,0.237 0.095,0.358c0.001,0.065 -0.007,0.131 -0.023,0.197c-1.055,4.176 -4.84,7.271 -9.342,7.271c-5.318,0 -9.635,-4.317 -9.635,-9.635c0,-4.486 3.073,-8.26 7.215,-9.327l0.049,-0.014l0,0Zm-1.166,2.014c-2.72,1.317 -4.598,4.104 -4.598,7.327c0,4.49 3.645,8.135 8.135,8.135c3.222,-0 6.01,-1.878 7.327,-4.598c-0.812,0.251 -1.674,0.386 -2.568,0.386c-4.792,0 -8.682,-3.89 -8.682,-8.682c-0,-0.894 0.135,-1.756 0.386,-2.568Z"/></g></svg>